<svg width="2081" height="2085" xmlns="http://www.w3.org/2000/svg" xmlns:xlink="http://www.w3.org/1999/xlink" overflow="hidden"><defs><clipPath id="clip0"><rect x="1416" y="192" width="2081" height="2085"/></clipPath></defs><g clip-path="url(#clip0)" transform="translate(-1416 -192)"><rect x="1938" y="197" width="1040" height="519" fill="#377E22" fill-opacity="1"/><rect x="1938" y="976" width="1040" height="520" fill="#5AC937" fill-opacity="1"/><rect x="1938" y="1756" width="1040" height="519" fill="#B2E6A2" fill-opacity="1"/><path d="M0 519 0 0 519 519Z" fill="#B2E6A2" fill-rule="evenodd" fill-opacity="1" transform="matrix(-1 0 0 1 1938 1756)"/><path d="M2978 197 3497 197 2978 716Z" fill="#377E22" fill-rule="evenodd" fill-opacity="1"/><path d="M2978 976 3497 976 2978 1496Z" fill="#5AC937" fill-rule="evenodd" fill-opacity="1"/><path d="M1938 1496 1419 1496 1938 976Z" fill="#5AC937" fill-rule="evenodd" fill-opacity="1"/><path d="M1938 716 1419 716 1938 197Z" fill="#377E22" fill-rule="evenodd" fill-opacity="1"/><path d="M2978 1756 3497 1756 2978 2275Z" fill="#B2E6A2" fill-rule="evenodd" fill-opacity="1"/></g></svg>