<svg width="2081" height="2085" xmlns="http://www.w3.org/2000/svg" xmlns:xlink="http://www.w3.org/1999/xlink" overflow="hidden"><defs><clipPath id="clip0"><rect x="1416" y="197" width="2081" height="2085"/></clipPath></defs><g clip-path="url(#clip0)" transform="translate(-1416 -197)"><path d="M1419 200 2068.38 200 2458 1239 1808.63 1239 1419 200Z" fill="#B2E6A2" fill-rule="evenodd" fill-opacity="1"/><path d="M1039 1039 389.625 1039 0 0 649.375 0 1039 1039Z" fill="#5AC937" fill-rule="evenodd" fill-opacity="1" transform="matrix(1 0 0 -1 1419 2278)"/><path d="M2458 200 3107.38 200 3497 1239 2847.63 1239 2458 200Z" fill="#5AC937" fill-rule="evenodd" fill-opacity="1"/><path d="M1039 1039 389.625 1039 0 0 649.375 0 1039 1039Z" fill="#377E22" fill-rule="evenodd" fill-opacity="1" transform="matrix(1 0 0 -1 2458 2278)"/></g></svg>