<svg width="2090" height="2085" xmlns="http://www.w3.org/2000/svg" xmlns:xlink="http://www.w3.org/1999/xlink" overflow="hidden"><defs><clipPath id="clip0"><rect x="1411" y="197" width="2090" height="2085"/></clipPath></defs><g clip-path="url(#clip0)" transform="translate(-1411 -197)"><path d="M2455.72 211.709 2758.77 736.594 2455.72 1261.48 2152.68 736.594 2455.72 211.709Z" fill="#5AC937" fill-rule="evenodd" fill-opacity="1"/><path d="M1562.62 1758.61 2168.71 1758.61 1868.67 2278.29 1868.67 2278.29 1418.61 2018.45 1418.61 2008.05 1562.62 1758.61Z" fill="#B2E6A2" fill-rule="evenodd" fill-opacity="1"/><path d="M2742.74 1758.61 3348.83 1758.61 3497.35 2015.85 3042.78 2278.29 2742.74 1758.61Z" fill="#377E22" fill-rule="evenodd" fill-opacity="1"/><path d="M2758.77 736.594 3348.83 1758.61 2742.74 1758.61 2455.72 1261.48 2758.77 736.594Z" fill="#B2E6A2" fill-rule="evenodd" fill-opacity="1"/><path d="M2152.68 736.594 2455.72 1261.48 2168.71 1758.61 1562.62 1758.61 2152.68 736.594Z" fill="#377E22" fill-rule="evenodd" fill-opacity="1"/><path d="M1418.61 2008.05 1418.61 2018.45 1414.1 2015.85 1418.61 2008.05Z" fill="#5AC937" fill-rule="evenodd" fill-opacity="1"/></g></svg>