<svg width="2085" height="2085" xmlns="http://www.w3.org/2000/svg" xmlns:xlink="http://www.w3.org/1999/xlink" overflow="hidden"><defs><clipPath id="clip0"><rect x="1416" y="197" width="2085" height="2085"/></clipPath></defs><g clip-path="url(#clip0)" transform="translate(-1416 -197)"><path d="M1177.49 0 0 988.029 0 1496.83 787.723 835.851 1177.49 0Z" fill="#5AC937" fill-rule="evenodd" fill-opacity="1" transform="matrix(-0.906308 -0.422618 -0.422618 0.906308 2875.54 775.491)"/><path d="M389.764 0 0 835.852 0 1864.15 389.764 1537.1 389.764 0Z" fill="#377E22" fill-rule="evenodd" fill-opacity="1" transform="matrix(-0.906308 -0.422618 -0.422618 0.906308 3460.83 442.586)"/><path d="M911.615 0.00252625 911.615 0.00252625 911.609 0 845.419 55.5406 455.656 891.391 455.654 891.392 0 1868.55 353.246 2033.27 1162.15 298.576 1162.15 298.575 1162.15 298.575 1231.76 149.289Z" fill="#B2E6A2" fill-rule="evenodd" fill-opacity="1" transform="matrix(-0.906308 -0.422618 -0.422618 0.906308 2598.05 584.816)"/><path d="M1198.66 149.289 1198.66 149.286 808.9 149.286 808.899 149.287 808.899 149.288 0 1883.98 353.246 2048.7 808.9 1071.55 808.9 1071.55 1198.66 235.695ZM878.513 0 808.9 149.286 1198.66 149.286Z" fill="#5AC937" fill-rule="evenodd" fill-opacity="1" transform="matrix(-0.906308 -0.422618 -0.422618 0.906308 4293.55 570.83)"/></g></svg>