<svg width="2787" height="2786" xmlns="http://www.w3.org/2000/svg" xmlns:xlink="http://www.w3.org/1999/xlink" overflow="hidden"><defs><clipPath id="clip0"><rect x="-4826" y="-866" width="2787" height="2786"/></clipPath></defs><g clip-path="url(#clip0)" transform="translate(4826 866)"><path d="M-4207-711-3588-711-2969-92.2499-2969 835.873-3588 217.125-3588 217.125-3588 217.123-3588-92.2499-4207-711ZM-4826-711-4207-92.2499-4207 1145.25-3588 1764-4207 1764-4826 1145.25-4826-711Z" fill="#377E22" fill-rule="evenodd" fill-opacity="1"/><path d="M0 928.2 618.75 1547 2475 1547C2475 1237.6 2475 928.2 2475 618.8L2475 618.8 1856.25 0C1856.25 309.4 1856.25 618.8 1856.25 928.2L0 928.2Z" fill="#5AC937" fill-rule="evenodd" fill-opacity="1" transform="matrix(1.83697e-16 1 1 -1.83697e-16 -3588 -711)"/></g></svg>