<svg width="1302" height="1306" xmlns="http://www.w3.org/2000/svg" xmlns:xlink="http://www.w3.org/1999/xlink" overflow="hidden"><defs><clipPath id="clip0"><rect x="192" y="362" width="1302" height="1306"/></clipPath></defs><g clip-path="url(#clip0)" transform="translate(-192 -362)"><path d="M1492 1015.5 1229.9 1108.71 1229.9 922.291ZM1301.72 556.219 1182.33 807.485 1050.51 675.67ZM842.5 366 935.708 628.1 749.291 628.1ZM383.219 556.219 634.485 675.67 502.67 807.485ZM193 1015.5 455.1 922.291 455.1 1108.71ZM383.219 1474.72 502.67 1223.51 634.485 1355.33ZM842.5 1665 749.291 1402.9 935.708 1402.9ZM1301.72 1474.72 1050.51 1355.33 1182.33 1223.51ZM517.75 1015.5C517.75 836.146 663.145 690.75 842.5 690.75 1021.85 690.75 1167.25 836.146 1167.25 1015.5 1167.25 1194.85 1021.85 1340.25 842.5 1340.25 663.145 1340.25 517.75 1194.85 517.75 1015.5Z" fill="#1F4E79" fill-rule="evenodd" fill-opacity="1"/></g></svg>