<svg width="2081" height="2085" xmlns="http://www.w3.org/2000/svg" xmlns:xlink="http://www.w3.org/1999/xlink" overflow="hidden"><defs><clipPath id="clip0"><rect x="1416" y="197" width="2081" height="2085"/></clipPath></defs><g clip-path="url(#clip0)" transform="translate(-1416 -197)"><rect x="1809" y="200" width="260" height="1039" fill="#B2E6A2" fill-opacity="1"/><path d="M1808 200 1808 1239 1419 200Z" fill="#B2E6A2" fill-rule="evenodd" fill-opacity="1"/><path d="M2068 1239 2068 200 2458 1239Z" fill="#B2E6A2" fill-rule="evenodd" fill-opacity="1"/><rect x="0" y="0" width="260" height="1039" fill="#5AC937" fill-opacity="1" transform="matrix(1 0 0 -1 1809 2278)"/><path d="M0 1039 0 0 389 1039Z" fill="#5AC937" fill-rule="evenodd" fill-opacity="1" transform="matrix(-1 0 0 1 1808 1239)"/><path d="M0 1039 0 0 390 1039Z" fill="#5AC937" fill-rule="evenodd" fill-opacity="1" transform="matrix(1 0 0 -1 2068 2278)"/><rect x="2849" y="200" width="259" height="1039" fill="#5AC937" fill-opacity="1"/><path d="M2848 200 2848 1239 2458 200Z" fill="#5AC937" fill-rule="evenodd" fill-opacity="1"/><path d="M3108 1239 3108 200 3497 1239Z" fill="#5AC937" fill-rule="evenodd" fill-opacity="1"/><rect x="0" y="0" width="259" height="1039" fill="#377E22" fill-opacity="1" transform="matrix(1 0 0 -1 2849 2278)"/><path d="M0 1039 0 0 390 1039Z" fill="#377E22" fill-rule="evenodd" fill-opacity="1" transform="matrix(-1 0 0 1 2848 1239)"/><path d="M0 1039 0 0 389 1039Z" fill="#377E22" fill-rule="evenodd" fill-opacity="1" transform="matrix(1 0 0 -1 3108 2278)"/></g></svg>