<svg width="2081" height="2085" xmlns="http://www.w3.org/2000/svg" xmlns:xlink="http://www.w3.org/1999/xlink" overflow="hidden"><defs><clipPath id="clip0"><rect x="1416" y="197" width="2081" height="2085"/></clipPath></defs><g clip-path="url(#clip0)" transform="translate(-1416 -197)"><path d="M3389.4 200 3497 200 3497 827.092 2046 2278 2046 2278 2046 2278 2046 2278 2413.36 1910.66 2046 1543.32 2046 1543.32 3389.4 200Z" fill="#377E22" fill-rule="evenodd" fill-opacity="1"/><path d="M1419 916 2046 1543.2 2046 1543.2 2046 1543.2 1678.71 1910.6 2046 2278 2046 2278 1419 1650.81 1419 916Z" fill="#B2E6A2" fill-rule="evenodd" fill-opacity="1"/><path d="M2045.5 1543 2413 1910.5 2045.5 2278 1678 1910.5 2045.5 1543Z" fill="#FFFFFF" fill-rule="evenodd" fill-opacity="1"/><path d="M2045.92 1543.35 2413.39 1910.82 2045.92 2278.29 1678.45 1910.82 2045.92 1543.35Z" fill="#5AC937" fill-rule="evenodd" fill-opacity="1"/></g></svg>