<svg width="9657" height="2484" xmlns="http://www.w3.org/2000/svg" xmlns:xlink="http://www.w3.org/1999/xlink" overflow="hidden"><defs><clipPath id="clip0"><rect x="233" y="4079" width="9657" height="2484"/></clipPath></defs><g clip-path="url(#clip0)" transform="translate(-233 -4079)"><path d="M6675.61 4360 6946.6 4360C6965.6 4360 6984.12 4367.55 7002.17 4382.66L7026.62 4403.15C7045.41 4418.87 7054.81 4438.32 7054.81 4461.48L7054.81 4512.83 6948.45 4512.83 6948.45 4483C6948.45 4474.08 6948.2 4468.83 6947.68 4467.25 6947.16 4465.67 6944.5 4463.01 6939.71 4459.28 6934.92 4455.55 6931.31 4453.32 6928.89 4452.59 6926.47 4451.86 6919.81 4451.49 6908.91 4451.49L6713.3 4451.49C6702.3 4451.49 6695.58 4451.85 6693.15 4452.58 6690.72 4453.3 6687.11 4455.52 6682.33 4459.24 6677.56 4462.95 6674.93 4465.51 6674.46 4466.92 6673.99 4468.32 6673.76 4473.62 6673.76 4482.83L6673.76 4643.68C6673.76 4653.2 6674.03 4658.78 6674.58 4660.41 6675.12 4662.04 6677.81 4664.72 6682.63 4668.47 6687.46 4672.22 6690.96 4674.42 6693.15 4675.07 6695.33 4675.73 6702.05 4676.06 6713.3 4676.06L6956.8 4676.06C6975.67 4676.06 6994.14 4683.59 7012.19 4698.67L7036.65 4719.09C7055.55 4734.87 7065 4754.27 7065 4777.31L7065 4991.71C7065 5015.38 7055.55 5035.11 7036.65 5050.89L7012.19 5071.31C6994.09 5086.44 6975.62 5094 6956.8 5094L6665.42 5094C6646.38 5094 6627.8 5086.42 6609.69 5071.26L6585.25 5050.77C6566.57 5035.13 6557.23 5015.37 6557.23 4991.48L6557.23 4941.17 6663.58 4941.17 6663.58 4969.96C6663.58 4979.53 6663.85 4985.13 6664.39 4986.77 6664.94 4988.4 6667.62 4991.11 6672.46 4994.88 6677.29 4998.66 6680.8 5000.87 6682.97 5001.53 6685.15 5002.18 6691.86 5002.51 6703.11 5002.51L6919.1 5002.51C6930.24 5002.51 6936.9 5002.18 6939.08 5001.53 6941.26 5000.87 6944.77 4998.67 6949.6 4994.91 6954.43 4991.15 6957.14 4988.38 6957.74 4986.59 6958.34 4984.8 6958.65 4979.3 6958.65 4970.09L6958.65 4798.93C6958.65 4790.04 6958.38 4784.81 6957.85 4783.23 6957.32 4781.66 6954.67 4779.01 6949.9 4775.3 6945.13 4771.59 6941.52 4769.37 6939.08 4768.64 6936.64 4767.91 6929.98 4767.55 6919.1 4767.55L6675.61 4767.55C6656.69 4767.55 6638.69 4760.42 6621.6 4746.17L6592.93 4721.7C6575.92 4707.92 6567.42 4691.5 6567.42 4672.45L6567.42 4461.2C6567.42 4438.09 6576.81 4418.7 6595.59 4403.02L6620.04 4382.6C6638.1 4367.53 6656.62 4360 6675.61 4360ZM6031.8 4360 6302.8 4360C6321.79 4360 6340.31 4367.55 6358.36 4382.66L6382.81 4403.15C6401.6 4418.87 6411 4438.32 6411 4461.48L6411 4512.83 6304.65 4512.83 6304.65 4483C6304.65 4474.08 6304.39 4468.83 6303.87 4467.25 6303.35 4465.67 6300.69 4463.01 6295.9 4459.28 6291.11 4455.55 6287.5 4453.32 6285.08 4452.59 6282.67 4451.86 6276 4451.49 6265.1 4451.49L6069.5 4451.49C6058.49 4451.49 6051.77 4451.85 6049.34 4452.58 6046.91 4453.3 6043.3 4455.52 6038.52 4459.24 6033.75 4462.95 6031.13 4465.51 6030.65 4466.92 6030.18 4468.32 6029.95 4473.62 6029.95 4482.83L6029.95 4643.68C6029.95 4653.2 6030.22 4658.78 6030.77 4660.41 6031.31 4662.04 6034 4664.72 6038.83 4668.47 6043.65 4672.22 6047.16 4674.42 6049.34 4675.07 6051.53 4675.73 6058.24 4676.06 6069.5 4676.06L6312.99 4676.06C6331.86 4676.06 6350.33 4683.59 6368.39 4698.67L6392.84 4719.09C6411.74 4734.87 6421.19 4754.27 6421.19 4777.31L6421.19 4991.71C6421.19 5015.38 6411.74 5035.11 6392.84 5050.89L6368.39 5071.31C6350.28 5086.44 6331.81 5094 6312.99 5094L6021.61 5094C6002.57 5094 5983.99 5086.42 5965.88 5071.26L5941.45 5050.77C5922.76 5035.13 5913.42 5015.37 5913.42 4991.48L5913.42 4941.17 6019.77 4941.17 6019.77 4969.96C6019.77 4979.53 6020.05 4985.13 6020.59 4986.77 6021.13 4988.4 6023.81 4991.11 6028.65 4994.88 6033.49 4998.66 6036.99 5000.87 6039.17 5001.53 6041.34 5002.18 6048.05 5002.51 6059.3 5002.51L6275.29 5002.51C6286.43 5002.51 6293.09 5002.18 6295.27 5001.53 6297.45 5000.87 6300.96 4998.67 6305.79 4994.91 6310.62 4991.15 6313.34 4988.38 6313.94 4986.59 6314.54 4984.8 6314.84 4979.3 6314.84 4970.09L6314.84 4798.93C6314.84 4790.04 6314.57 4784.81 6314.04 4783.23 6313.51 4781.66 6310.86 4779.01 6306.09 4775.3 6301.32 4771.59 6297.71 4769.37 6295.27 4768.64 6292.83 4767.91 6286.17 4767.55 6275.29 4767.55L6031.8 4767.55C6012.88 4767.55 5994.88 4760.42 5977.79 4746.17L5949.12 4721.7C5932.11 4707.92 5923.61 4691.5 5923.61 4672.45L5923.61 4461.2C5923.61 4438.09 5933 4418.7 5951.78 4403.02L5976.24 4382.6C5994.29 4367.53 6012.81 4360 6031.8 4360ZM5342.19 4360 5668.21 4360C5687.2 4360 5705.71 4367.55 5723.76 4382.66L5748.21 4403.15C5767 4418.87 5776.4 4438.32 5776.4 4461.48L5776.4 4512.83 5670.04 4512.83 5670.04 4483C5670.04 4474.08 5669.78 4468.83 5669.27 4467.25 5668.75 4465.67 5666.09 4463.01 5661.3 4459.28 5656.5 4455.55 5652.9 4453.32 5650.48 4452.59 5648.06 4451.86 5641.41 4451.49 5630.51 4451.49L5379.88 4451.49C5368.88 4451.49 5362.16 4451.85 5359.74 4452.58 5357.31 4453.3 5353.7 4455.53 5348.92 4459.26 5344.14 4462.98 5341.51 4465.54 5341.04 4466.95 5340.57 4468.35 5340.34 4473.66 5340.34 4482.88L5340.34 4970.09C5340.34 4979.62 5340.61 4985.2 5341.16 4986.83 5341.7 4988.46 5344.39 4991.15 5349.21 4994.91 5354.04 4998.67 5357.54 5000.87 5359.73 5001.53 5361.91 5002.18 5368.63 5002.51 5379.88 5002.51L5630.51 5002.51C5641.66 5002.51 5648.32 5002.18 5650.5 5001.53 5652.68 5000.87 5656.19 4998.67 5661.02 4994.93 5665.86 4991.19 5668.57 4988.43 5669.16 4986.65 5669.75 4984.88 5670.04 4979.4 5670.04 4970.22L5670.04 4798.74 5515.19 4798.74 5515.19 4707.25 5776.4 4707.25 5776.4 4991.85C5776.4 5015.5 5766.95 5035.19 5748.05 5050.95L5723.59 5071.34C5705.47 5086.45 5687.01 5094 5668.21 5094L5342.19 5094C5323.27 5094 5304.74 5086.44 5286.62 5071.32L5262.17 5050.92C5243.38 5035.23 5233.98 5015.51 5233.98 4991.77L5233.98 4461.19C5233.98 4438.09 5243.38 4418.69 5262.17 4403L5286.62 4382.6C5304.68 4367.53 5323.2 4360 5342.19 4360ZM3641 4360 4302.82 4360 4454.38 4983.38 4603.88 4360 4733.74 4360 4887.31 4983.42 5033.8 4360 5143.36 4360 4949.28 5094 4815.93 5094 4668.33 4484.39 4523.75 5094 4387.33 5094 4217.6 4451.49 4000.87 4451.49 4000.87 4451.49 3973.53 4451.49 3973.53 5094 3867.18 5094 3867.18 4451.49 3641 4451.49 3641 4360Z" fill="#000000" fill-rule="evenodd" fill-opacity="1"/><path d="M9551.02 5815.3C9539.37 5815.3 9532.26 5815.68 9529.69 5816.45 9527.11 5817.22 9523.3 5819.57 9518.24 5823.51 9513.18 5827.44 9510.4 5830.16 9509.9 5831.66 9509.4 5833.16 9509.15 5838.8 9509.15 5848.56L9509.15 5967.1 9765.56 5967.1 9765.56 5848.56C9765.56 5839.14 9765.28 5833.6 9764.73 5831.93 9764.17 5830.26 9761.36 5827.46 9756.29 5823.52 9751.23 5819.57 9747.41 5817.22 9744.84 5816.45 9742.27 5815.68 9735.22 5815.3 9723.69 5815.3ZM8923.87 5815.3C8912.22 5815.3 8905.11 5815.68 8902.53 5816.45 8899.96 5817.22 8896.15 5819.57 8891.09 5823.52 8886.03 5827.46 8883.25 5830.17 8882.75 5831.66 8882.25 5833.15 8882 5838.77 8882 5848.52L8882 6148.38C8882 6158.47 8882.29 6164.38 8882.86 6166.11 8883.44 6167.83 8886.28 6170.68 8891.39 6174.66 8896.5 6178.63 8900.21 6180.97 8902.52 6181.66 8904.84 6182.35 8911.96 6182.7 8923.87 6182.7L9078.18 6182.7C9092.61 6182.7 9107.33 6176.45 9122.35 6163.94 9137.38 6151.43 9144.89 6139.42 9144.89 6127.89L9144.89 5859.32C9144.89 5850.59 9144.31 5845.27 9143.17 5843.37 9142.02 5841.47 9135.55 5836.91 9123.75 5829.7 9111.96 5822.5 9104.12 5818.29 9100.24 5817.1 9096.36 5815.9 9088.66 5815.3 9077.12 5815.3ZM8296.72 5815.3C8285.07 5815.3 8277.95 5815.68 8275.38 5816.45 8272.81 5817.22 8268.99 5819.57 8263.94 5823.52 8258.88 5827.46 8256.1 5830.17 8255.6 5831.66 8255.1 5833.15 8254.85 5838.77 8254.85 5848.52L8254.85 6148.38C8254.85 6158.47 8255.14 6164.38 8255.71 6166.11 8256.28 6167.83 8259.12 6170.68 8264.24 6174.66 8269.35 6178.63 8273.06 6180.97 8275.37 6181.66 8277.69 6182.35 8284.8 6182.7 8296.72 6182.7L8449.96 6182.7C8461.74 6182.7 8469.45 6182.14 8473.08 6181.02 8476.71 6179.91 8484.43 6175.74 8496.23 6168.52 8508.04 6161.3 8514.57 6156.64 8515.84 6154.55 8517.1 6152.45 8517.74 6146.8 8517.74 6137.58L8517.74 5869.01C8517.74 5858.16 8510.24 5846.5 8495.26 5834.02 8480.28 5821.54 8465.54 5815.3 8451.03 5815.3ZM6300.78 5815.3C6289.13 5815.3 6282.02 5815.68 6279.45 5816.45 6276.87 5817.22 6273.06 5819.57 6268 5823.51 6262.94 5827.44 6260.16 5830.16 6259.66 5831.66 6259.17 5833.16 6258.92 5838.8 6258.92 5848.56L6258.92 5967.1 6515.32 5967.1 6515.32 5848.56C6515.32 5839.14 6515.04 5833.6 6514.49 5831.93 6513.93 5830.26 6511.12 5827.46 6506.06 5823.52 6500.99 5819.57 6497.17 5817.22 6494.6 5816.45 6492.03 5815.68 6484.98 5815.3 6473.45 5815.3ZM9511.1 5718.5 9762.53 5718.5C9779.44 5718.5 9798.6 5726.16 9820.03 5741.48L9847.17 5763.27C9867.86 5778.81 9878.21 5799.62 9878.21 5825.72L9878.21 6058.4 9509.15 6058.4 9509.15 6148.5C9509.15 6158.57 9509.44 6164.46 9510.01 6166.17 9510.59 6167.89 9513.43 6170.72 9518.54 6174.68 9523.65 6178.64 9527.36 6180.97 9529.68 6181.66 9531.99 6182.35 9539.11 6182.7 9551.02 6182.7L9760.37 6182.7C9772.03 6182.7 9779.49 6182.08 9782.73 6180.83 9785.97 6179.58 9796.15 6172.64 9813.25 6160.01L9889 6225.63 9859.15 6255.4C9845.43 6266.9 9835.62 6273.79 9829.7 6276.07 9823.79 6278.36 9813.63 6279.5 9799.23 6279.5L9511.1 6279.5C9490.94 6279.5 9471.3 6271.5 9452.18 6255.49L9426.36 6233.88C9406.46 6217.28 9396.51 6196.42 9396.51 6171.29L9396.51 5825.61C9396.51 5801.16 9406.46 5780.63 9426.36 5764.03L9452.18 5742.43C9471.22 5726.48 9490.86 5718.5 9511.1 5718.5ZM8883.95 5718.5 9090.06 5718.5C9104.06 5718.5 9113.92 5719.38 9119.64 5721.14 9125.36 5722.9 9134.13 5727.05 9145.97 5733.59 9151.25 5736.89 9155.88 5739.94 9159.84 5742.76L9167.95 5749.08 9171.92 5745.02C9174.58 5742.55 9177.67 5739.88 9181.2 5737.01 9190.37 5729.37 9198.01 5724.37 9204.12 5722.02 9210.22 5719.67 9220.4 5718.5 9234.66 5718.5L9283.44 5718.5 9283.44 5781.51C9283.44 5793.38 9282.6 5801.82 9280.94 5806.82 9279.27 5811.82 9275.2 5816.84 9268.73 5821.87 9262.26 5826.91 9258.78 5830.17 9258.28 5831.66 9257.78 5833.15 9257.53 5838.78 9257.53 5848.54L9257.53 6451.86C9257.53 6476.88 9247.53 6497.74 9227.51 6514.42L9201.61 6536.01C9182.41 6552 9162.85 6560 9142.93 6560L8816.85 6560 8816.85 6520.81C8816.85 6502.78 8818.02 6491.15 8820.37 6485.93 8822.72 6480.71 8830.33 6473.13 8843.19 6463.2L9103 6463.2C9114.81 6463.2 9121.88 6462.85 9124.18 6462.16 9126.49 6461.47 9130.21 6459.14 9135.32 6455.17 9140.44 6451.21 9143.31 6448.28 9143.94 6446.39 9144.57 6444.5 9144.89 6438.69 9144.89 6428.95L9144.89 6244.51 9143.98 6245.37C9140.52 6248.51 9136.53 6252.04 9131.98 6255.97 9113.16 6271.66 9093.79 6279.5 9073.87 6279.5L8883.95 6279.5C8863.79 6279.5 8844.15 6271.5 8825.03 6255.49L8799.21 6233.88C8779.31 6217.28 8769.36 6196.42 8769.36 6171.29L8769.36 5825.61C8769.36 5801.16 8779.31 5780.63 8799.21 5764.03L8825.03 5742.43C8844.07 5726.48 8863.71 5718.5 8883.95 5718.5ZM7549.89 5718.5 7662.54 5718.5 7662.54 6148.34C7662.54 6158.45 7662.83 6164.36 7663.4 6166.09 7663.97 6167.81 7666.82 6170.67 7671.94 6174.66 7677.06 6178.64 7680.78 6180.98 7683.08 6181.67 7685.38 6182.36 7692.49 6182.7 7704.41 6182.7L7820.96 6182.7C7832.74 6182.7 7840.44 6182.14 7844.08 6181.02 7847.71 6179.91 7855.43 6175.74 7867.24 6168.52 7879.04 6161.3 7885.58 6156.64 7886.84 6154.54 7888.1 6152.44 7888.73 6146.77 7888.73 6137.55L7888.73 5718.5 8001.38 5718.5 8001.38 6148.34C8001.38 6158.45 8001.66 6164.37 8002.24 6166.1 8002.81 6167.83 8006.34 6171.21 8012.82 6176.25 8019.3 6181.28 8023.33 6186.18 8024.91 6190.95 8026.49 6195.72 8027.28 6203.86 8027.28 6215.39L8027.28 6279.5 7978.5 6279.5C7964.11 6279.5 7953.96 6278.37 7948.05 6276.1 7942.15 6273.83 7934.48 6268.76 7925.06 6260.9 7921.53 6258.03 7918.43 6255.36 7915.78 6252.9L7911.55 6248.6 7903.27 6254.63C7899.21 6257.31 7894.48 6260.2 7889.07 6263.31 7877.49 6270.75 7868.96 6275.3 7863.5 6276.98 7858.03 6278.66 7848.17 6279.5 7833.9 6279.5L7664.48 6279.5C7644.33 6279.5 7624.69 6271.5 7605.56 6255.49L7579.75 6233.88C7559.85 6217.28 7549.89 6196.42 7549.89 6171.29ZM6260.86 5718.5 6512.3 5718.5C6529.2 5718.5 6548.36 5726.16 6569.79 5741.48L6596.93 5763.27C6617.62 5778.81 6627.97 5799.62 6627.97 5825.72L6627.97 6058.4 6258.92 6058.4 6258.92 6148.5C6258.92 6158.57 6259.2 6164.46 6259.78 6166.17 6260.35 6167.89 6263.19 6170.72 6268.3 6174.68 6273.41 6178.64 6277.12 6180.97 6279.44 6181.66 6281.75 6182.35 6288.87 6182.7 6300.78 6182.7L6510.13 6182.7C6521.79 6182.7 6529.25 6182.08 6532.49 6180.83 6535.73 6179.58 6545.91 6172.64 6563.02 6160.01L6638.76 6225.63 6608.91 6255.4C6595.19 6266.9 6585.38 6273.79 6579.46 6276.07 6573.55 6278.36 6563.39 6279.5 6548.99 6279.5L6260.86 6279.5C6240.7 6279.5 6221.06 6271.5 6201.94 6255.49L6176.12 6233.88C6156.22 6217.28 6146.27 6196.42 6146.27 6171.29L6146.27 5825.61C6146.27 5801.16 6156.22 5780.63 6176.12 5764.03L6201.94 5742.43C6220.98 5726.48 6240.62 5718.5 6260.86 5718.5ZM5539.03 5718.5 5587.79 5718.5C5601.93 5718.5 5612.05 5719.67 5618.16 5722.02 5624.27 5724.37 5631.9 5729.37 5641.07 5737.01 5644.64 5739.91 5647.76 5742.59 5650.43 5745.07L5654.56 5749.27 5662.45 5743.34C5666.38 5740.67 5670.96 5737.78 5676.2 5734.69 5688.09 5727.41 5696.91 5722.9 5702.64 5721.14 5708.36 5719.38 5718.29 5718.5 5732.4 5718.5L5923.39 5718.5C5943.39 5718.5 5962.95 5726.48 5982.07 5742.43L6007.97 5764.03C6027.99 5780.72 6038 5801.25 6038 5825.61L6038 6279.5 5925.35 6279.5 5925.35 5848.56C5925.35 5839.14 5925.07 5833.6 5924.51 5831.93 5923.95 5830.26 5921.14 5827.46 5916.07 5823.52 5911.01 5819.57 5907.19 5817.22 5904.61 5816.45 5902.04 5815.68 5894.99 5815.3 5883.47 5815.3L5745.35 5815.3C5733.72 5815.3 5725.95 5815.9 5722.06 5817.1 5718.16 5818.29 5710.31 5822.5 5698.52 5829.71 5686.72 5836.92 5680.28 5841.44 5679.2 5843.26 5678.12 5845.07 5677.58 5850.44 5677.58 5859.35L5677.58 6279.5 5564.93 6279.5 5564.93 5848.56C5564.93 5839.14 5564.65 5833.6 5564.1 5831.93 5563.55 5830.26 5560.04 5826.91 5553.55 5821.87 5547.06 5816.82 5543.02 5811.89 5541.42 5807.08 5539.83 5802.26 5539.03 5793.74 5539.03 5781.51ZM5309.4 5718.5 5422.05 5718.5 5422.05 6279.5 5309.4 6279.5ZM4419.11 5718.5 4467.87 5718.5C4482.01 5718.5 4492.14 5719.67 4498.24 5722.02 4504.35 5724.37 4511.99 5729.37 4521.16 5737.01 4524.72 5739.91 4527.84 5742.59 4530.52 5745.07L4534.65 5749.27 4542.54 5743.34C4546.47 5740.67 4551.05 5737.78 4556.29 5734.69 4568.18 5727.41 4576.99 5722.9 4582.72 5721.14 4588.45 5719.38 4598.37 5718.5 4612.49 5718.5L4803.48 5718.5C4823.47 5718.5 4843.03 5726.48 4862.16 5742.43L4888.06 5764.03C4908.08 5780.72 4918.08 5801.25 4918.08 5825.61L4918.08 6279.5 4805.44 6279.5 4805.44 5848.56C4805.44 5839.14 4805.16 5833.6 4804.6 5831.93 4804.03 5830.26 4801.22 5827.46 4796.16 5823.52 4791.09 5819.57 4787.27 5817.22 4784.7 5816.45 4782.13 5815.68 4775.08 5815.3 4763.55 5815.3L4625.43 5815.3C4613.8 5815.3 4606.04 5815.9 4602.14 5817.1 4598.25 5818.29 4590.4 5822.5 4578.6 5829.71 4566.81 5836.92 4560.37 5841.44 4559.29 5843.26 4558.2 5845.07 4557.66 5850.44 4557.66 5859.35L4557.66 6279.5 4445.01 6279.5 4445.01 5848.56C4445.01 5839.14 4444.74 5833.6 4444.19 5831.93 4443.64 5830.26 4440.12 5826.91 4433.64 5821.87 4427.15 5816.82 4423.11 5811.89 4421.51 5807.08 4419.91 5802.26 4419.11 5793.74 4419.11 5781.51ZM3795.53 5599.7C3783.88 5599.7 3776.77 5600.08 3774.2 5600.85 3771.62 5601.62 3767.8 5603.97 3762.74 5607.92 3757.68 5611.86 3754.89 5614.57 3754.4 5616.05 3753.9 5617.54 3753.65 5623.16 3753.65 5632.91L3753.65 6148.39C3753.65 6158.48 3753.94 6164.38 3754.52 6166.11 3755.09 6167.83 3757.94 6170.68 3763.05 6174.66 3768.16 6178.63 3771.87 6180.97 3774.19 6181.66 3776.5 6182.35 3783.62 6182.7 3795.53 6182.7L4110.63 6182.7C4122.44 6182.7 4129.49 6182.36 4131.8 6181.67 4134.11 6180.98 4137.82 6178.65 4142.94 6174.67 4148.05 6170.68 4150.93 6167.75 4151.56 6165.86 4152.19 6163.97 4152.5 6158.15 4152.5 6148.39L4152.5 5632.91C4152.5 5623.5 4152.22 5617.96 4151.67 5616.3 4151.11 5614.64 4148.31 5611.85 4143.26 5607.92 4138.2 5603.99 4134.38 5601.63 4131.8 5600.86 4129.22 5600.09 4122.16 5599.7 4110.63 5599.7ZM7283.37 5502.9 7396.02 5502.9 7396.02 6171.34C7396.02 6196.36 7386.01 6217.22 7365.99 6233.92L7340.09 6255.51C7320.9 6271.5 7301.34 6279.5 7281.41 6279.5L7085.03 6279.5C7064.98 6279.5 7045.37 6271.5 7026.17 6255.51L7000.27 6233.92C6980.37 6217.33 6970.42 6196.47 6970.42 6171.36L6970.42 6085.9 7083.07 6085.9 7083.07 6148.5C7083.07 6158.56 7083.35 6164.44 7083.93 6166.16 7084.5 6167.87 7087.34 6170.71 7092.46 6174.67 7097.58 6178.64 7101.29 6180.97 7103.6 6181.66 7105.92 6182.35 7113.04 6182.7 7124.95 6182.7L7241.48 6182.7C7253.29 6182.7 7260.34 6182.36 7262.65 6181.67 7264.96 6180.98 7268.67 6178.64 7273.79 6174.66 7278.9 6170.67 7281.78 6167.73 7282.42 6165.84 7283.05 6163.95 7283.37 6158.12 7283.37 6148.36ZM5363.58 5502.9 5367.89 5502.9C5392.3 5502.9 5409.37 5507.21 5419.09 5515.84 5424.63 5521.37 5428.12 5526.55 5429.58 5531.39 5431.03 5536.23 5431.76 5545.83 5431.76 5560.19L5431.76 5568.81C5431.76 5583.48 5430.98 5593.42 5429.42 5598.63 5427.87 5603.83 5423.41 5609.64 5416.07 5616.05 5408.62 5623.48 5392.92 5627.2 5368.96 5627.2L5363.58 5627.2C5346.83 5627.2 5336.03 5626.72 5331.21 5625.76 5326.38 5624.79 5320.34 5621.21 5313.1 5615.01 5307.08 5609.01 5303.34 5603.57 5301.88 5598.69 5300.42 5593.82 5299.69 5583.86 5299.69 5568.81L5299.69 5560.19C5299.69 5545.46 5300.41 5535.71 5301.84 5530.92 5303.27 5526.14 5307.59 5520.6 5314.8 5514.31 5320.27 5508.85 5325.69 5505.58 5331.07 5504.51 5336.45 5503.44 5347.28 5502.9 5363.58 5502.9ZM3755.61 5502.9 4150.56 5502.9C4170.54 5502.9 4190.1 5510.87 4209.22 5526.81L4235.12 5548.4C4255.14 5565.09 4265.15 5585.61 4265.15 5609.96L4265.15 6171.34C4265.15 6196.36 4255.14 6217.22 4235.12 6233.92L4209.22 6255.51C4190.03 6271.5 4170.47 6279.5 4150.56 6279.5L3755.61 6279.5C3735.57 6279.5 3715.95 6271.5 3696.76 6255.51L3670.85 6233.92C3650.95 6217.32 3641 6196.46 3641 6171.34L3641 5609.96C3641 5585.52 3650.95 5565 3670.85 5548.4L3696.76 5526.81C3715.88 5510.87 3735.5 5502.9 3755.61 5502.9ZM8517.74 5460 8630.38 5460 8630.38 6148.38C8630.38 6158.48 8630.67 6164.4 8631.24 6166.11 8631.81 6167.83 8635.34 6171.21 8641.81 6176.25 8648.29 6181.28 8652.32 6186.18 8653.9 6190.95 8655.49 6195.72 8656.28 6203.86 8656.28 6215.39L8656.28 6279.5 8607.51 6279.5C8593.11 6279.5 8582.96 6278.37 8577.06 6276.1 8571.15 6273.83 8563.48 6268.76 8554.05 6260.9 8550.52 6258.03 8547.42 6255.36 8544.77 6252.9L8540.57 6248.62 8532.35 6254.63C8528.31 6257.31 8523.6 6260.2 8518.22 6263.31 8506.53 6270.75 8497.95 6275.3 8492.49 6276.98 8487.02 6278.66 8477.16 6279.5 8462.91 6279.5L8256.79 6279.5C8236.64 6279.5 8217 6271.5 8197.87 6255.49L8172.06 6233.88C8152.16 6217.28 8142.2 6196.42 8142.2 6171.29L8142.2 5825.61C8142.2 5801.16 8152.16 5780.63 8172.06 5764.03L8197.87 5742.43C8216.92 5726.48 8236.56 5718.5 8256.79 5718.5L8446.72 5718.5C8466.71 5718.5 8486.76 5726.88 8506.87 5743.65L8517.74 5754.52ZM5036.73 5460 5149.38 5460 5149.38 6133.22C5149.38 6148.85 5149.81 6157.86 5150.69 6160.27 5151.57 6162.68 5155.45 6166.18 5162.34 6170.77 5173.32 6179.22 5180.02 6186.11 5182.44 6191.46 5184.85 6196.8 5186.06 6208.38 5186.06 6226.18L5186.06 6279.5 5142.69 6279.5C5127.65 6279.5 5117.45 6278.61 5112.1 6276.83 5106.76 6275.05 5099.42 6270.9 5090.08 6264.39L5063.04 6246.4C5050.42 6238 5042.87 6230.85 5040.42 6224.96 5037.96 6219.06 5036.73 6206.96 5036.73 6188.65Z" fill="#000000" fill-rule="evenodd" fill-opacity="1"/><path d="M856.667 4082 1475.33 4082 2094 4700.75 2094 5628.87 1475.34 5010.12 1475.33 5010.12 1475.33 5010.12 1475.33 4700.75 856.667 4082ZM238 4082 856.667 4700.75 856.667 5938.25 1475.33 6557 856.667 6557 238 5938.25 238 4082Z" fill="#5AC937" fill-rule="evenodd" fill-opacity="1"/><path d="M0 928.2 618.75 1547 2475 1547C2475 1237.6 2475 928.2 2475 618.8L2475 618.8 1856.25 0C1856.25 309.4 1856.25 618.8 1856.25 928.2L0 928.2Z" fill="#377E22" fill-rule="evenodd" fill-opacity="1" transform="matrix(1.83697e-16 1 1 -1.83697e-16 1475 4082)"/></g></svg>