<svg width="2792" height="2479" xmlns="http://www.w3.org/2000/svg" xmlns:xlink="http://www.w3.org/1999/xlink" overflow="hidden"><defs><clipPath id="clip0"><rect x="233" y="4079" width="2792" height="2479"/></clipPath></defs><g clip-path="url(#clip0)" transform="translate(-233 -4079)"><path d="M856.667 4082 1475.33 4082 2094 4700.75 2094 5628.87 1475.34 5010.12 1475.33 5010.12 1475.33 5010.12 1475.33 4700.75 856.667 4082ZM238 4082 856.667 4700.75 856.667 5938.25 1475.33 6557 856.667 6557 238 5938.25 238 4082Z" fill="#5AC937" fill-rule="evenodd" fill-opacity="1"/><path d="M0 928.2 618.75 1547 2475 1547C2475 1237.6 2475 928.2 2475 618.8L2475 618.8 1856.25 0C1856.25 309.4 1856.25 618.8 1856.25 928.2L0 928.2Z" fill="#377E22" fill-rule="evenodd" fill-opacity="1" transform="matrix(1.83697e-16 1 1 -1.83697e-16 1475 4082)"/></g></svg>