<svg width="9657" height="2484" xmlns="http://www.w3.org/2000/svg" xmlns:xlink="http://www.w3.org/1999/xlink" overflow="hidden"><defs><clipPath id="clip0"><rect x="233" y="522" width="9657" height="2484"/></clipPath></defs><g clip-path="url(#clip0)" transform="translate(-233 -522)"><path d="M6675.61 804 6946.6 804C6965.6 804 6984.12 811.544 7002.17 826.631L7026.62 847.087C7045.41 862.791 7054.81 882.209 7054.81 905.343L7054.81 956.622 6948.45 956.622 6948.45 926.837C6948.45 917.926 6948.2 912.68 6947.68 911.102 6947.16 909.523 6944.5 906.87 6939.71 903.145 6934.92 899.418 6931.31 897.191 6928.89 896.461 6926.47 895.731 6919.81 895.366 6908.91 895.366L6713.3 895.366C6702.3 895.366 6695.58 895.728 6693.15 896.452 6690.72 897.178 6687.11 899.394 6682.33 903.104 6677.56 906.813 6674.93 909.368 6674.46 910.769 6673.99 912.169 6673.76 917.466 6673.76 926.659L6673.76 1087.29C6673.76 1096.8 6674.03 1102.37 6674.58 1104 6675.12 1105.62 6677.81 1108.31 6682.63 1112.05 6687.46 1115.79 6690.96 1117.99 6693.15 1118.64 6695.33 1119.3 6702.05 1119.63 6713.3 1119.63L6956.8 1119.63C6975.67 1119.63 6994.14 1127.15 7012.19 1142.21L7036.65 1162.6C7055.55 1178.36 7065 1197.74 7065 1220.74L7065 1434.85C7065 1458.49 7055.55 1478.19 7036.65 1493.95L7012.19 1514.34C6994.09 1529.45 6975.62 1537 6956.8 1537L6665.42 1537C6646.38 1537 6627.8 1529.43 6609.69 1514.29L6585.25 1493.83C6566.57 1478.21 6557.23 1458.48 6557.23 1434.62L6557.23 1384.38 6663.58 1384.38 6663.58 1413.12C6663.58 1422.69 6663.85 1428.28 6664.39 1429.92 6664.94 1431.55 6667.62 1434.25 6672.46 1438.02 6677.29 1441.79 6680.8 1444 6682.97 1444.65 6685.15 1445.31 6691.86 1445.63 6703.11 1445.63L6919.1 1445.63C6930.24 1445.63 6936.9 1445.31 6939.08 1444.65 6941.26 1444 6944.77 1441.8 6949.6 1438.04 6954.43 1434.29 6957.14 1431.52 6957.74 1429.74 6958.34 1427.95 6958.65 1422.46 6958.65 1413.25L6958.65 1242.33C6958.65 1233.45 6958.38 1228.23 6957.85 1226.65 6957.32 1225.08 6954.67 1222.44 6949.9 1218.74 6945.13 1215.03 6941.52 1212.82 6939.08 1212.09 6936.64 1211.36 6929.98 1210.99 6919.1 1210.99L6675.61 1210.99C6656.69 1210.99 6638.69 1203.88 6621.6 1189.64L6592.93 1165.21C6575.92 1151.44 6567.42 1135.05 6567.42 1116.02L6567.42 905.067C6567.42 881.988 6576.81 862.618 6595.59 846.958L6620.04 826.566C6638.1 811.522 6656.62 804 6675.61 804ZM6031.8 804 6302.8 804C6321.79 804 6340.31 811.544 6358.36 826.631L6382.81 847.087C6401.6 862.791 6411 882.209 6411 905.343L6411 956.622 6304.65 956.622 6304.65 926.837C6304.65 917.926 6304.39 912.68 6303.87 911.102 6303.35 909.523 6300.69 906.87 6295.9 903.145 6291.11 899.418 6287.5 897.191 6285.08 896.461 6282.67 895.731 6276 895.366 6265.1 895.366L6069.5 895.366C6058.49 895.366 6051.77 895.728 6049.34 896.452 6046.91 897.178 6043.3 899.394 6038.52 903.104 6033.75 906.813 6031.13 909.368 6030.65 910.769 6030.18 912.169 6029.95 917.466 6029.95 926.659L6029.95 1087.29C6029.95 1096.8 6030.22 1102.37 6030.77 1104 6031.31 1105.62 6034 1108.31 6038.83 1112.05 6043.65 1115.79 6047.16 1117.99 6049.34 1118.64 6051.53 1119.3 6058.24 1119.63 6069.5 1119.63L6312.99 1119.63C6331.86 1119.63 6350.33 1127.15 6368.39 1142.21L6392.84 1162.6C6411.74 1178.36 6421.19 1197.74 6421.19 1220.74L6421.19 1434.85C6421.19 1458.49 6411.74 1478.19 6392.84 1493.95L6368.39 1514.34C6350.28 1529.45 6331.81 1537 6312.99 1537L6021.61 1537C6002.57 1537 5983.99 1529.43 5965.88 1514.29L5941.45 1493.83C5922.76 1478.21 5913.42 1458.48 5913.42 1434.62L5913.42 1384.38 6019.77 1384.38 6019.77 1413.12C6019.77 1422.69 6020.05 1428.28 6020.59 1429.92 6021.13 1431.55 6023.81 1434.25 6028.65 1438.02 6033.49 1441.79 6036.99 1444 6039.17 1444.65 6041.34 1445.31 6048.05 1445.63 6059.3 1445.63L6275.29 1445.63C6286.43 1445.63 6293.09 1445.31 6295.27 1444.65 6297.45 1444 6300.96 1441.8 6305.79 1438.04 6310.62 1434.29 6313.34 1431.52 6313.94 1429.74 6314.54 1427.95 6314.84 1422.46 6314.84 1413.25L6314.84 1242.33C6314.84 1233.45 6314.57 1228.23 6314.04 1226.65 6313.51 1225.08 6310.86 1222.44 6306.09 1218.74 6301.32 1215.03 6297.71 1212.82 6295.27 1212.09 6292.83 1211.36 6286.17 1210.99 6275.29 1210.99L6031.8 1210.99C6012.88 1210.99 5994.88 1203.88 5977.79 1189.64L5949.12 1165.21C5932.11 1151.44 5923.61 1135.05 5923.61 1116.02L5923.61 905.067C5923.61 881.988 5933 862.618 5951.78 846.958L5976.24 826.566C5994.29 811.522 6012.81 804 6031.8 804ZM5342.19 804 5668.21 804C5687.2 804 5705.71 811.544 5723.76 826.631L5748.21 847.087C5767 862.791 5776.4 882.209 5776.4 905.343L5776.4 956.622 5670.04 956.622 5670.04 926.837C5670.04 917.926 5669.78 912.68 5669.27 911.102 5668.75 909.523 5666.09 906.87 5661.3 903.145 5656.5 899.418 5652.9 897.191 5650.48 896.461 5648.06 895.731 5641.41 895.366 5630.51 895.366L5379.88 895.366C5368.88 895.366 5362.16 895.728 5359.74 896.452 5357.31 897.178 5353.7 899.4 5348.92 903.12 5344.14 906.841 5341.51 909.401 5341.04 910.801 5340.57 912.202 5340.34 917.504 5340.34 926.708L5340.34 1413.25C5340.34 1422.77 5340.61 1428.34 5341.16 1429.97 5341.7 1431.6 5344.39 1434.29 5349.21 1438.04 5354.04 1441.8 5357.54 1444 5359.73 1444.65 5361.91 1445.31 5368.63 1445.63 5379.88 1445.63L5630.51 1445.63C5641.66 1445.63 5648.32 1445.31 5650.5 1444.65 5652.68 1444 5656.19 1441.8 5661.02 1438.07 5665.86 1434.33 5668.57 1431.58 5669.16 1429.8 5669.75 1428.03 5670.04 1422.56 5670.04 1413.38L5670.04 1242.14 5515.19 1242.14 5515.19 1150.77 5776.4 1150.77 5776.4 1434.99C5776.4 1458.6 5766.95 1478.27 5748.05 1494.01L5723.59 1514.37C5705.47 1529.46 5687.01 1537 5668.21 1537L5342.19 1537C5323.27 1537 5304.74 1529.45 5286.62 1514.35L5262.17 1493.98C5243.38 1478.31 5233.98 1458.62 5233.98 1434.91L5233.98 905.051C5233.98 881.982 5243.38 862.613 5262.17 846.941L5286.62 826.566C5304.68 811.522 5323.2 804 5342.19 804ZM3641 804 4302.82 804 4454.38 1426.53 4603.88 804 4733.74 804 4887.31 1426.57 5033.8 804 5143.36 804 4949.28 1537 4815.93 1537 4668.33 928.218 4523.75 1537 4387.33 1537 4217.6 895.366 4000.87 895.366 4000.87 895.366 3973.53 895.366 3973.53 1537 3867.18 1537 3867.18 895.366 3641 895.366 3641 804Z" fill="#000000" fill-rule="evenodd" fill-opacity="1"/><path d="M9551.02 2259.3C9539.37 2259.3 9532.26 2259.68 9529.69 2260.45 9527.11 2261.22 9523.3 2263.57 9518.24 2267.51 9513.18 2271.44 9510.4 2274.16 9509.9 2275.66 9509.4 2277.16 9509.15 2282.8 9509.15 2292.56L9509.15 2411.1 9765.56 2411.1 9765.56 2292.56C9765.56 2283.14 9765.28 2277.6 9764.73 2275.93 9764.17 2274.26 9761.36 2271.46 9756.29 2267.52 9751.23 2263.57 9747.41 2261.22 9744.84 2260.45 9742.27 2259.68 9735.22 2259.3 9723.69 2259.3ZM8923.87 2259.3C8912.22 2259.3 8905.11 2259.68 8902.53 2260.45 8899.96 2261.22 8896.15 2263.57 8891.09 2267.52 8886.03 2271.46 8883.25 2274.17 8882.75 2275.66 8882.25 2277.15 8882 2282.77 8882 2292.52L8882 2592.38C8882 2602.47 8882.29 2608.38 8882.86 2610.11 8883.44 2611.83 8886.28 2614.68 8891.39 2618.66 8896.5 2622.63 8900.21 2624.97 8902.52 2625.66 8904.84 2626.35 8911.96 2626.7 8923.87 2626.7L9078.18 2626.7C9092.61 2626.7 9107.33 2620.45 9122.35 2607.94 9137.38 2595.43 9144.89 2583.42 9144.89 2571.89L9144.89 2303.32C9144.89 2294.59 9144.31 2289.27 9143.17 2287.37 9142.02 2285.47 9135.55 2280.91 9123.75 2273.7 9111.96 2266.5 9104.12 2262.29 9100.24 2261.1 9096.36 2259.9 9088.66 2259.3 9077.12 2259.3ZM8296.72 2259.3C8285.07 2259.3 8277.95 2259.68 8275.38 2260.45 8272.81 2261.22 8268.99 2263.57 8263.94 2267.52 8258.88 2271.46 8256.1 2274.17 8255.6 2275.66 8255.1 2277.15 8254.85 2282.77 8254.85 2292.52L8254.85 2592.38C8254.85 2602.47 8255.14 2608.38 8255.71 2610.11 8256.28 2611.83 8259.12 2614.68 8264.24 2618.66 8269.35 2622.63 8273.06 2624.97 8275.37 2625.66 8277.69 2626.35 8284.8 2626.7 8296.72 2626.7L8449.96 2626.7C8461.74 2626.7 8469.45 2626.14 8473.08 2625.02 8476.71 2623.91 8484.43 2619.74 8496.23 2612.52 8508.04 2605.3 8514.57 2600.64 8515.84 2598.55 8517.1 2596.45 8517.74 2590.8 8517.74 2581.58L8517.74 2313.01C8517.74 2302.16 8510.24 2290.5 8495.26 2278.02 8480.28 2265.54 8465.54 2259.3 8451.03 2259.3ZM6300.78 2259.3C6289.13 2259.3 6282.02 2259.68 6279.45 2260.45 6276.87 2261.22 6273.06 2263.57 6268 2267.51 6262.94 2271.44 6260.16 2274.16 6259.66 2275.66 6259.17 2277.16 6258.92 2282.8 6258.92 2292.56L6258.92 2411.1 6515.32 2411.1 6515.32 2292.56C6515.32 2283.14 6515.04 2277.6 6514.49 2275.93 6513.93 2274.26 6511.12 2271.46 6506.06 2267.52 6500.99 2263.57 6497.17 2261.22 6494.6 2260.45 6492.03 2259.68 6484.98 2259.3 6473.45 2259.3ZM9511.1 2162.5 9762.53 2162.5C9779.44 2162.5 9798.6 2170.16 9820.03 2185.48L9847.17 2207.27C9867.86 2222.81 9878.21 2243.62 9878.21 2269.72L9878.21 2502.4 9509.15 2502.4 9509.15 2592.5C9509.15 2602.57 9509.44 2608.46 9510.01 2610.17 9510.59 2611.89 9513.43 2614.72 9518.54 2618.68 9523.65 2622.64 9527.36 2624.97 9529.68 2625.66 9531.99 2626.35 9539.11 2626.7 9551.02 2626.7L9760.37 2626.7C9772.03 2626.7 9779.49 2626.08 9782.73 2624.83 9785.97 2623.58 9796.15 2616.64 9813.25 2604.01L9889 2669.63 9859.15 2699.4C9845.43 2710.9 9835.62 2717.79 9829.7 2720.07 9823.79 2722.36 9813.63 2723.5 9799.23 2723.5L9511.1 2723.5C9490.94 2723.5 9471.3 2715.5 9452.18 2699.49L9426.36 2677.88C9406.46 2661.28 9396.51 2640.42 9396.51 2615.29L9396.51 2269.61C9396.51 2245.16 9406.46 2224.63 9426.36 2208.03L9452.18 2186.43C9471.22 2170.48 9490.86 2162.5 9511.1 2162.5ZM8883.95 2162.5 9090.06 2162.5C9104.06 2162.5 9113.92 2163.38 9119.64 2165.14 9125.36 2166.9 9134.13 2171.05 9145.97 2177.59 9151.25 2180.89 9155.88 2183.94 9159.84 2186.76L9167.95 2193.08 9171.92 2189.02C9174.58 2186.55 9177.67 2183.88 9181.2 2181.01 9190.37 2173.37 9198.01 2168.37 9204.12 2166.02 9210.22 2163.67 9220.4 2162.5 9234.66 2162.5L9283.44 2162.5 9283.44 2225.51C9283.44 2237.38 9282.6 2245.82 9280.94 2250.82 9279.27 2255.82 9275.2 2260.84 9268.73 2265.87 9262.26 2270.91 9258.78 2274.17 9258.28 2275.66 9257.78 2277.15 9257.53 2282.78 9257.53 2292.54L9257.53 2895.86C9257.53 2920.88 9247.53 2941.74 9227.51 2958.42L9201.61 2980.01C9182.41 2996 9162.85 3004 9142.93 3004L8816.85 3004 8816.85 2964.81C8816.85 2946.78 8818.02 2935.15 8820.37 2929.93 8822.72 2924.71 8830.33 2917.13 8843.19 2907.2L9103 2907.2C9114.81 2907.2 9121.88 2906.85 9124.18 2906.16 9126.49 2905.47 9130.21 2903.14 9135.32 2899.17 9140.44 2895.21 9143.31 2892.28 9143.94 2890.39 9144.57 2888.5 9144.89 2882.68 9144.89 2872.95L9144.89 2688.51 9143.98 2689.37C9140.52 2692.51 9136.53 2696.04 9131.98 2699.97 9113.16 2715.66 9093.79 2723.5 9073.87 2723.5L8883.95 2723.5C8863.79 2723.5 8844.15 2715.5 8825.03 2699.49L8799.21 2677.88C8779.31 2661.28 8769.36 2640.42 8769.36 2615.29L8769.36 2269.61C8769.36 2245.16 8779.31 2224.63 8799.21 2208.03L8825.03 2186.43C8844.07 2170.48 8863.71 2162.5 8883.95 2162.5ZM7549.89 2162.5 7662.54 2162.5 7662.54 2592.34C7662.54 2602.45 7662.83 2608.36 7663.4 2610.09 7663.97 2611.81 7666.82 2614.67 7671.94 2618.66 7677.06 2622.64 7680.78 2624.98 7683.08 2625.67 7685.38 2626.36 7692.49 2626.7 7704.41 2626.7L7820.96 2626.7C7832.74 2626.7 7840.44 2626.14 7844.08 2625.02 7847.71 2623.91 7855.43 2619.74 7867.24 2612.52 7879.04 2605.3 7885.58 2600.64 7886.84 2598.54 7888.1 2596.44 7888.73 2590.77 7888.73 2581.55L7888.73 2162.5 8001.38 2162.5 8001.38 2592.34C8001.38 2602.45 8001.66 2608.37 8002.24 2610.1 8002.81 2611.83 8006.34 2615.21 8012.82 2620.25 8019.3 2625.28 8023.33 2630.18 8024.91 2634.95 8026.49 2639.72 8027.28 2647.86 8027.28 2659.39L8027.28 2723.5 7978.5 2723.5C7964.11 2723.5 7953.96 2722.37 7948.05 2720.1 7942.15 2717.83 7934.48 2712.76 7925.06 2704.9 7921.53 2702.03 7918.43 2699.36 7915.78 2696.9L7911.55 2692.6 7903.27 2698.63C7899.21 2701.31 7894.48 2704.2 7889.07 2707.31 7877.49 2714.75 7868.96 2719.3 7863.5 2720.98 7858.03 2722.66 7848.17 2723.5 7833.9 2723.5L7664.48 2723.5C7644.33 2723.5 7624.69 2715.5 7605.56 2699.49L7579.75 2677.88C7559.85 2661.28 7549.89 2640.42 7549.89 2615.29ZM6260.86 2162.5 6512.3 2162.5C6529.2 2162.5 6548.36 2170.16 6569.79 2185.48L6596.93 2207.27C6617.62 2222.81 6627.97 2243.62 6627.97 2269.72L6627.97 2502.4 6258.92 2502.4 6258.92 2592.5C6258.92 2602.57 6259.2 2608.46 6259.78 2610.17 6260.35 2611.89 6263.19 2614.72 6268.3 2618.68 6273.41 2622.64 6277.12 2624.97 6279.44 2625.66 6281.75 2626.35 6288.87 2626.7 6300.78 2626.7L6510.13 2626.7C6521.79 2626.7 6529.25 2626.08 6532.49 2624.83 6535.73 2623.58 6545.91 2616.64 6563.02 2604.01L6638.76 2669.63 6608.91 2699.4C6595.19 2710.9 6585.38 2717.79 6579.46 2720.07 6573.55 2722.36 6563.39 2723.5 6548.99 2723.5L6260.86 2723.5C6240.7 2723.5 6221.06 2715.5 6201.94 2699.49L6176.12 2677.88C6156.22 2661.28 6146.27 2640.42 6146.27 2615.29L6146.27 2269.61C6146.27 2245.16 6156.22 2224.63 6176.12 2208.03L6201.94 2186.43C6220.98 2170.48 6240.62 2162.5 6260.86 2162.5ZM5539.03 2162.5 5587.79 2162.5C5601.93 2162.5 5612.05 2163.67 5618.16 2166.02 5624.27 2168.37 5631.9 2173.37 5641.07 2181.01 5644.64 2183.91 5647.76 2186.59 5650.43 2189.07L5654.56 2193.27 5662.45 2187.34C5666.38 2184.67 5670.96 2181.78 5676.2 2178.69 5688.09 2171.41 5696.91 2166.9 5702.64 2165.14 5708.36 2163.38 5718.29 2162.5 5732.4 2162.5L5923.39 2162.5C5943.39 2162.5 5962.95 2170.48 5982.07 2186.43L6007.97 2208.03C6027.99 2224.72 6038 2245.25 6038 2269.61L6038 2723.5 5925.35 2723.5 5925.35 2292.56C5925.35 2283.14 5925.07 2277.6 5924.51 2275.93 5923.95 2274.26 5921.14 2271.46 5916.07 2267.52 5911.01 2263.57 5907.19 2261.22 5904.61 2260.45 5902.04 2259.68 5894.99 2259.3 5883.47 2259.3L5745.35 2259.3C5733.72 2259.3 5725.95 2259.9 5722.06 2261.1 5718.16 2262.29 5710.31 2266.5 5698.52 2273.71 5686.72 2280.92 5680.28 2285.44 5679.2 2287.26 5678.12 2289.07 5677.58 2294.44 5677.58 2303.35L5677.58 2723.5 5564.93 2723.5 5564.93 2292.56C5564.93 2283.14 5564.65 2277.6 5564.1 2275.93 5563.55 2274.26 5560.04 2270.91 5553.55 2265.87 5547.06 2260.82 5543.02 2255.89 5541.42 2251.08 5539.83 2246.26 5539.03 2237.74 5539.03 2225.51ZM5309.4 2162.5 5422.05 2162.5 5422.05 2723.5 5309.4 2723.5ZM4419.11 2162.5 4467.87 2162.5C4482.01 2162.5 4492.14 2163.67 4498.24 2166.02 4504.35 2168.37 4511.99 2173.37 4521.16 2181.01 4524.72 2183.91 4527.84 2186.59 4530.52 2189.07L4534.65 2193.27 4542.54 2187.34C4546.47 2184.67 4551.05 2181.78 4556.29 2178.69 4568.18 2171.41 4576.99 2166.9 4582.72 2165.14 4588.45 2163.38 4598.37 2162.5 4612.49 2162.5L4803.48 2162.5C4823.47 2162.5 4843.03 2170.48 4862.16 2186.43L4888.06 2208.03C4908.08 2224.72 4918.08 2245.25 4918.08 2269.61L4918.08 2723.5 4805.44 2723.5 4805.44 2292.56C4805.44 2283.14 4805.16 2277.6 4804.6 2275.93 4804.03 2274.26 4801.22 2271.46 4796.16 2267.52 4791.09 2263.57 4787.27 2261.22 4784.7 2260.45 4782.13 2259.68 4775.08 2259.3 4763.55 2259.3L4625.43 2259.3C4613.8 2259.3 4606.04 2259.9 4602.14 2261.1 4598.25 2262.29 4590.4 2266.5 4578.6 2273.71 4566.81 2280.92 4560.37 2285.44 4559.29 2287.26 4558.2 2289.07 4557.66 2294.44 4557.66 2303.35L4557.66 2723.5 4445.01 2723.5 4445.01 2292.56C4445.01 2283.14 4444.74 2277.6 4444.19 2275.93 4443.64 2274.26 4440.12 2270.91 4433.64 2265.87 4427.15 2260.82 4423.11 2255.89 4421.51 2251.08 4419.91 2246.26 4419.11 2237.74 4419.11 2225.51ZM3795.53 2043.7C3783.88 2043.7 3776.77 2044.08 3774.2 2044.85 3771.62 2045.62 3767.8 2047.97 3762.74 2051.92 3757.68 2055.86 3754.89 2058.57 3754.4 2060.05 3753.9 2061.54 3753.65 2067.16 3753.65 2076.91L3753.65 2592.39C3753.65 2602.48 3753.94 2608.38 3754.52 2610.11 3755.09 2611.83 3757.94 2614.68 3763.05 2618.66 3768.16 2622.63 3771.87 2624.97 3774.19 2625.66 3776.5 2626.35 3783.62 2626.7 3795.53 2626.7L4110.63 2626.7C4122.44 2626.7 4129.49 2626.36 4131.8 2625.67 4134.11 2624.98 4137.82 2622.65 4142.94 2618.67 4148.05 2614.68 4150.93 2611.75 4151.56 2609.86 4152.19 2607.97 4152.5 2602.15 4152.5 2592.39L4152.5 2076.91C4152.5 2067.5 4152.22 2061.96 4151.67 2060.3 4151.11 2058.64 4148.31 2055.85 4143.26 2051.92 4138.2 2047.99 4134.38 2045.63 4131.8 2044.86 4129.22 2044.09 4122.16 2043.7 4110.63 2043.7ZM7283.37 1946.9 7396.02 1946.9 7396.02 2615.34C7396.02 2640.36 7386.01 2661.22 7365.99 2677.92L7340.09 2699.51C7320.9 2715.5 7301.34 2723.5 7281.41 2723.5L7085.03 2723.5C7064.98 2723.5 7045.37 2715.5 7026.17 2699.51L7000.27 2677.92C6980.37 2661.33 6970.42 2640.47 6970.42 2615.36L6970.42 2529.9 7083.07 2529.9 7083.07 2592.5C7083.07 2602.56 7083.35 2608.44 7083.93 2610.16 7084.5 2611.87 7087.34 2614.71 7092.46 2618.67 7097.58 2622.64 7101.29 2624.97 7103.6 2625.66 7105.92 2626.35 7113.04 2626.7 7124.95 2626.7L7241.48 2626.7C7253.29 2626.7 7260.34 2626.36 7262.65 2625.67 7264.96 2624.98 7268.67 2622.64 7273.79 2618.66 7278.9 2614.67 7281.78 2611.73 7282.42 2609.84 7283.05 2607.95 7283.37 2602.12 7283.37 2592.36ZM5363.58 1946.9 5367.89 1946.9C5392.3 1946.9 5409.37 1951.21 5419.09 1959.84 5424.63 1965.37 5428.12 1970.55 5429.58 1975.39 5431.03 1980.23 5431.76 1989.83 5431.76 2004.19L5431.76 2012.81C5431.76 2027.48 5430.98 2037.42 5429.42 2042.63 5427.87 2047.83 5423.41 2053.64 5416.07 2060.05 5408.62 2067.48 5392.92 2071.2 5368.96 2071.2L5363.58 2071.2C5346.83 2071.2 5336.03 2070.72 5331.21 2069.76 5326.38 2068.79 5320.34 2065.21 5313.1 2059.01 5307.08 2053.01 5303.34 2047.57 5301.88 2042.69 5300.42 2037.82 5299.69 2027.86 5299.69 2012.81L5299.69 2004.19C5299.69 1989.46 5300.41 1979.71 5301.84 1974.92 5303.27 1970.14 5307.59 1964.6 5314.8 1958.31 5320.27 1952.85 5325.69 1949.58 5331.07 1948.51 5336.45 1947.44 5347.28 1946.9 5363.58 1946.9ZM3755.61 1946.9 4150.56 1946.9C4170.54 1946.9 4190.1 1954.87 4209.22 1970.81L4235.12 1992.4C4255.14 2009.09 4265.15 2029.61 4265.15 2053.96L4265.15 2615.34C4265.15 2640.36 4255.14 2661.22 4235.12 2677.92L4209.22 2699.51C4190.03 2715.5 4170.47 2723.5 4150.56 2723.5L3755.61 2723.5C3735.57 2723.5 3715.95 2715.5 3696.76 2699.51L3670.85 2677.92C3650.95 2661.32 3641 2640.46 3641 2615.34L3641 2053.96C3641 2029.52 3650.95 2009 3670.85 1992.4L3696.76 1970.81C3715.88 1954.87 3735.5 1946.9 3755.61 1946.9ZM8517.74 1904 8630.38 1904 8630.38 2592.38C8630.38 2602.48 8630.67 2608.4 8631.24 2610.11 8631.81 2611.83 8635.34 2615.21 8641.81 2620.25 8648.29 2625.28 8652.32 2630.18 8653.9 2634.95 8655.49 2639.72 8656.28 2647.86 8656.28 2659.39L8656.28 2723.5 8607.51 2723.5C8593.11 2723.5 8582.96 2722.37 8577.06 2720.1 8571.15 2717.83 8563.48 2712.76 8554.05 2704.9 8550.52 2702.03 8547.42 2699.36 8544.77 2696.9L8540.57 2692.62 8532.35 2698.63C8528.31 2701.31 8523.6 2704.2 8518.22 2707.31 8506.53 2714.75 8497.95 2719.3 8492.49 2720.98 8487.02 2722.66 8477.16 2723.5 8462.91 2723.5L8256.79 2723.5C8236.64 2723.5 8217 2715.5 8197.87 2699.49L8172.06 2677.88C8152.16 2661.28 8142.2 2640.42 8142.2 2615.29L8142.2 2269.61C8142.2 2245.16 8152.16 2224.63 8172.06 2208.03L8197.87 2186.43C8216.92 2170.48 8236.56 2162.5 8256.79 2162.5L8446.72 2162.5C8466.71 2162.5 8486.76 2170.88 8506.87 2187.65L8517.74 2198.52ZM5036.73 1904 5149.38 1904 5149.38 2577.22C5149.38 2592.85 5149.81 2601.86 5150.69 2604.27 5151.57 2606.68 5155.45 2610.18 5162.34 2614.77 5173.32 2623.22 5180.02 2630.11 5182.44 2635.46 5184.85 2640.8 5186.06 2652.38 5186.06 2670.18L5186.06 2723.5 5142.69 2723.5C5127.65 2723.5 5117.45 2722.61 5112.1 2720.83 5106.76 2719.05 5099.42 2714.9 5090.08 2708.39L5063.04 2690.4C5050.42 2682 5042.87 2674.85 5040.42 2668.96 5037.96 2663.06 5036.73 2650.96 5036.73 2632.65Z" fill="#000000" fill-rule="evenodd" fill-opacity="1"/><path d="M856.667 526 1475.33 526 2094 1144.75 2094 2072.87 1475.34 1454.12 1475.33 1454.12 1475.33 1454.12 1475.33 1144.75 856.667 526ZM238 526 856.667 1144.75 856.667 2382.25 1475.33 3001 856.667 3001 238 2382.25 238 526Z" fill="#377E22" fill-rule="evenodd" fill-opacity="1"/><path d="M0 928.2 618.75 1547 2475 1547C2475 1237.6 2475 928.2 2475 618.8L2475 618.8 1856.25 0C1856.25 309.4 1856.25 618.8 1856.25 928.2L0 928.2Z" fill="#5AC937" fill-rule="evenodd" fill-opacity="1" transform="matrix(1.83697e-16 1 1 -1.83697e-16 1475 526)"/></g></svg>