<svg width="2792" height="2480" xmlns="http://www.w3.org/2000/svg" xmlns:xlink="http://www.w3.org/1999/xlink" overflow="hidden"><defs><clipPath id="clip0"><rect x="233" y="522" width="2792" height="2480"/></clipPath></defs><g clip-path="url(#clip0)" transform="translate(-233 -522)"><path d="M856.667 526 1475.33 526 2094 1144.75 2094 2072.87 1475.34 1454.12 1475.33 1454.12 1475.33 1454.12 1475.33 1144.75 856.667 526ZM238 526 856.667 1144.75 856.667 2382.25 1475.33 3001 856.667 3001 238 2382.25 238 526Z" fill="#377E22" fill-rule="evenodd" fill-opacity="1"/><path d="M0 928.2 618.75 1547 2475 1547C2475 1237.6 2475 928.2 2475 618.8L2475 618.8 1856.25 0C1856.25 309.4 1856.25 618.8 1856.25 928.2L0 928.2Z" fill="#5AC937" fill-rule="evenodd" fill-opacity="1" transform="matrix(1.83697e-16 1 1 -1.83697e-16 1475 526)"/></g></svg>